<?xml version="1.0" encoding="UTF-8"?>
<svg version="1.1" xmlns="http://www.w3.org/2000/svg" width="32" height="32">
<path d="M0 0 C0.78552246 0.01047363 1.57104492 0.02094727 2.38037109 0.03173828 C3.23115234 0.03818359 4.08193359 0.04462891 4.95849609 0.05126953 C6.29267578 0.07640625 6.29267578 0.07640625 7.65380859 0.10205078 C8.99958984 0.11558594 8.99958984 0.11558594 10.37255859 0.12939453 C12.59157445 0.15300108 14.81005937 0.18592768 17.02880859 0.22705078 C17.02880859 1.21705078 17.02880859 2.20705078 17.02880859 3.22705078 C9.10880859 3.72205078 9.10880859 3.72205078 1.02880859 4.22705078 C1.02880859 12.14705078 1.02880859 20.06705078 1.02880859 28.22705078 C6.30880859 28.55705078 11.58880859 28.88705078 17.02880859 29.22705078 C17.02880859 30.21705078 17.02880859 31.20705078 17.02880859 32.22705078 C13.90388608 32.28496922 10.77910094 32.32061824 7.65380859 32.35205078 C6.76435547 32.36880859 5.87490234 32.38556641 4.95849609 32.40283203 C3.68232422 32.4125 3.68232422 32.4125 2.38037109 32.42236328 C1.2020874 32.43807373 1.2020874 32.43807373 0 32.45410156 C-1.97119141 32.22705078 -1.97119141 32.22705078 -3.97119141 30.22705078 C-4.22998047 27.46142578 -4.22998047 27.46142578 -4.23681641 23.97705078 C-4.23939453 22.72923828 -4.24197266 21.48142578 -4.24462891 20.19580078 C-4.23689453 18.88611328 -4.22916016 17.57642578 -4.22119141 16.22705078 C-4.22892578 14.91736328 -4.23666016 13.60767578 -4.24462891 12.25830078 C-4.24205078 11.01048828 -4.23947266 9.76267578 -4.23681641 8.47705078 C-4.23456055 7.32720703 -4.23230469 6.17736328 -4.22998047 4.99267578 C-3.92746626 1.7597692 -3.38697322 0.39012696 0 0 Z " fill="#FFFFFF" transform="translate(5.97119140625,-0.22705078125)"/>
<path d="M0 0 C4.62983765 0.84729055 7.29394589 3.22069732 10 7 C10.30529302 10.05293017 9.54739016 11.28456605 7.71484375 13.6796875 C4.87474174 16.8321281 4.87474174 16.8321281 3 18 C0.80078125 17.6640625 0.80078125 17.6640625 -1 17 C0.875 13.125 0.875 13.125 2 12 C-1.63 11.67 -5.26 11.34 -9 11 C-9 9.68 -9 8.36 -9 7 C-3.555 6.505 -3.555 6.505 2 6 C1.01 5.01 0.02 4.02 -1 3 C-0.67 2.01 -0.34 1.02 0 0 Z " fill="#FFFFFF" transform="translate(20,7)"/>
</svg>
